<mxfile host="app.diagrams.net" modified="2023-05-31T21:10:46.414Z" agent="Mozilla/5.0 (Windows NT 10.0; Win64; x64) AppleWebKit/537.36 (KHTML, like Gecko) Chrome/113.0.0.0 Safari/537.36" etag="lNZDnPDJ5Lcp3oAnsp7M" version="21.3.3" type="device" pages="3">
  <diagram name="Activity Diagram" id="eFWmXqnDywYs7BomBlS6">
    <mxGraphModel dx="1434" dy="764" grid="1" gridSize="10" guides="1" tooltips="1" connect="1" arrows="1" fold="1" page="1" pageScale="1" pageWidth="850" pageHeight="1100" math="0" shadow="0">
      <root>
        <mxCell id="0" />
        <mxCell id="1" parent="0" />
        <mxCell id="AVBo9yQekNsDWq98zU21-1" value="" style="ellipse;whiteSpace=wrap;html=1;aspect=fixed;fillColor=#000000;" parent="1" vertex="1">
          <mxGeometry x="299.90999999999997" y="10" width="20" height="20" as="geometry" />
        </mxCell>
        <mxCell id="AVBo9yQekNsDWq98zU21-2" value="Login" style="rounded=0;whiteSpace=wrap;html=1;" parent="1" vertex="1">
          <mxGeometry x="259.90999999999997" y="70" width="100" height="40" as="geometry" />
        </mxCell>
        <mxCell id="AVBo9yQekNsDWq98zU21-3" value="Correct?" style="rhombus;whiteSpace=wrap;html=1;" parent="1" vertex="1">
          <mxGeometry x="269.90999999999997" y="160" width="80" height="80" as="geometry" />
        </mxCell>
        <mxCell id="AVBo9yQekNsDWq98zU21-4" value="" style="endArrow=classic;html=1;rounded=0;exitX=0.5;exitY=1;exitDx=0;exitDy=0;entryX=0.5;entryY=0;entryDx=0;entryDy=0;" parent="1" source="AVBo9yQekNsDWq98zU21-2" target="AVBo9yQekNsDWq98zU21-3" edge="1">
          <mxGeometry width="50" height="50" relative="1" as="geometry">
            <mxPoint x="219.91" y="150" as="sourcePoint" />
            <mxPoint x="269.90999999999997" y="100" as="targetPoint" />
          </mxGeometry>
        </mxCell>
        <mxCell id="AVBo9yQekNsDWq98zU21-5" value="" style="endArrow=classic;html=1;rounded=0;exitX=1;exitY=0.5;exitDx=0;exitDy=0;edgeStyle=orthogonalEdgeStyle;entryX=1;entryY=0.5;entryDx=0;entryDy=0;" parent="1" source="AVBo9yQekNsDWq98zU21-3" target="AVBo9yQekNsDWq98zU21-2" edge="1">
          <mxGeometry width="50" height="50" relative="1" as="geometry">
            <mxPoint x="219.91" y="150" as="sourcePoint" />
            <mxPoint x="469.90999999999997" y="160" as="targetPoint" />
            <Array as="points">
              <mxPoint x="459.90999999999997" y="200" />
              <mxPoint x="459.90999999999997" y="90" />
            </Array>
          </mxGeometry>
        </mxCell>
        <mxCell id="AVBo9yQekNsDWq98zU21-6" value="No" style="text;html=1;strokeColor=none;fillColor=none;align=center;verticalAlign=middle;whiteSpace=wrap;rounded=0;" parent="1" vertex="1">
          <mxGeometry x="459.90999999999997" y="130" width="40" height="30" as="geometry" />
        </mxCell>
        <mxCell id="AVBo9yQekNsDWq98zU21-8" value="Home Page" style="rounded=0;whiteSpace=wrap;html=1;" parent="1" vertex="1">
          <mxGeometry x="259.90999999999997" y="280" width="100" height="40" as="geometry" />
        </mxCell>
        <mxCell id="AVBo9yQekNsDWq98zU21-10" value="Cart" style="rounded=0;whiteSpace=wrap;html=1;" parent="1" vertex="1">
          <mxGeometry x="479.90999999999997" y="380" width="100" height="40" as="geometry" />
        </mxCell>
        <mxCell id="AVBo9yQekNsDWq98zU21-13" value="" style="endArrow=classic;html=1;rounded=0;exitX=0.5;exitY=1;exitDx=0;exitDy=0;entryX=0.5;entryY=0;entryDx=0;entryDy=0;" parent="1" source="AVBo9yQekNsDWq98zU21-3" target="AVBo9yQekNsDWq98zU21-8" edge="1">
          <mxGeometry width="50" height="50" relative="1" as="geometry">
            <mxPoint x="299.90999999999997" y="270" as="sourcePoint" />
            <mxPoint x="349.90999999999997" y="220" as="targetPoint" />
          </mxGeometry>
        </mxCell>
        <mxCell id="AVBo9yQekNsDWq98zU21-14" value="" style="endArrow=none;html=1;rounded=0;exitX=0.5;exitY=1;exitDx=0;exitDy=0;" parent="1" source="AVBo9yQekNsDWq98zU21-8" edge="1">
          <mxGeometry width="50" height="50" relative="1" as="geometry">
            <mxPoint x="309.90999999999997" y="280" as="sourcePoint" />
            <mxPoint x="309.90999999999997" y="360" as="targetPoint" />
          </mxGeometry>
        </mxCell>
        <mxCell id="AVBo9yQekNsDWq98zU21-15" value="" style="endArrow=none;html=1;rounded=0;" parent="1" edge="1">
          <mxGeometry width="50" height="50" relative="1" as="geometry">
            <mxPoint x="189.91" y="360" as="sourcePoint" />
            <mxPoint x="529.91" y="360" as="targetPoint" />
          </mxGeometry>
        </mxCell>
        <mxCell id="AVBo9yQekNsDWq98zU21-16" value="" style="endArrow=classic;html=1;rounded=0;entryX=0.5;entryY=0;entryDx=0;entryDy=0;" parent="1" target="AVBo9yQekNsDWq98zU21-10" edge="1">
          <mxGeometry width="50" height="50" relative="1" as="geometry">
            <mxPoint x="529.91" y="360" as="sourcePoint" />
            <mxPoint x="399.90999999999997" y="330" as="targetPoint" />
          </mxGeometry>
        </mxCell>
        <mxCell id="AVBo9yQekNsDWq98zU21-18" value="Products" style="rounded=0;whiteSpace=wrap;html=1;" parent="1" vertex="1">
          <mxGeometry x="139.91" y="380" width="100" height="40" as="geometry" />
        </mxCell>
        <mxCell id="AVBo9yQekNsDWq98zU21-19" value="" style="endArrow=classic;html=1;rounded=0;entryX=0.5;entryY=0;entryDx=0;entryDy=0;" parent="1" target="AVBo9yQekNsDWq98zU21-18" edge="1">
          <mxGeometry width="50" height="50" relative="1" as="geometry">
            <mxPoint x="189.91" y="360" as="sourcePoint" />
            <mxPoint x="239.91" y="380" as="targetPoint" />
          </mxGeometry>
        </mxCell>
        <mxCell id="AVBo9yQekNsDWq98zU21-20" value="View Products" style="rounded=0;whiteSpace=wrap;html=1;" parent="1" vertex="1">
          <mxGeometry x="49.91" y="500" width="100" height="40" as="geometry" />
        </mxCell>
        <mxCell id="AVBo9yQekNsDWq98zU21-21" value="Search Product" style="rounded=0;whiteSpace=wrap;html=1;" parent="1" vertex="1">
          <mxGeometry x="229.91" y="500" width="100" height="40" as="geometry" />
        </mxCell>
        <mxCell id="AVBo9yQekNsDWq98zU21-23" value="" style="endArrow=none;html=1;rounded=0;exitX=0.5;exitY=1;exitDx=0;exitDy=0;" parent="1" edge="1">
          <mxGeometry width="50" height="50" relative="1" as="geometry">
            <mxPoint x="189.60999999999999" y="420" as="sourcePoint" />
            <mxPoint x="189.60999999999999" y="460" as="targetPoint" />
          </mxGeometry>
        </mxCell>
        <mxCell id="AVBo9yQekNsDWq98zU21-24" value="" style="endArrow=none;html=1;rounded=0;" parent="1" edge="1">
          <mxGeometry width="50" height="50" relative="1" as="geometry">
            <mxPoint x="99.91" y="460" as="sourcePoint" />
            <mxPoint x="279.90999999999997" y="460" as="targetPoint" />
          </mxGeometry>
        </mxCell>
        <mxCell id="AVBo9yQekNsDWq98zU21-25" value="" style="endArrow=classic;html=1;rounded=0;entryX=0.5;entryY=0;entryDx=0;entryDy=0;" parent="1" target="AVBo9yQekNsDWq98zU21-20" edge="1">
          <mxGeometry width="50" height="50" relative="1" as="geometry">
            <mxPoint x="99.91" y="460" as="sourcePoint" />
            <mxPoint x="229.91" y="410" as="targetPoint" />
          </mxGeometry>
        </mxCell>
        <mxCell id="AVBo9yQekNsDWq98zU21-26" value="" style="endArrow=classic;html=1;rounded=0;entryX=0.5;entryY=0;entryDx=0;entryDy=0;" parent="1" target="AVBo9yQekNsDWq98zU21-21" edge="1">
          <mxGeometry width="50" height="50" relative="1" as="geometry">
            <mxPoint x="279.90999999999997" y="460" as="sourcePoint" />
            <mxPoint x="269.90999999999997" y="430" as="targetPoint" />
          </mxGeometry>
        </mxCell>
        <mxCell id="AVBo9yQekNsDWq98zU21-27" value="Select Product" style="rounded=0;whiteSpace=wrap;html=1;" parent="1" vertex="1">
          <mxGeometry x="49.91" y="590" width="100" height="40" as="geometry" />
        </mxCell>
        <mxCell id="AVBo9yQekNsDWq98zU21-28" value="" style="endArrow=classic;html=1;rounded=0;entryX=0.5;entryY=0;entryDx=0;entryDy=0;exitX=0.5;exitY=1;exitDx=0;exitDy=0;" parent="1" source="AVBo9yQekNsDWq98zU21-20" target="AVBo9yQekNsDWq98zU21-27" edge="1">
          <mxGeometry width="50" height="50" relative="1" as="geometry">
            <mxPoint x="109.91" y="470" as="sourcePoint" />
            <mxPoint x="109.91" y="510" as="targetPoint" />
          </mxGeometry>
        </mxCell>
        <mxCell id="AVBo9yQekNsDWq98zU21-29" value="" style="endArrow=classic;html=1;rounded=0;exitX=0.5;exitY=1;exitDx=0;exitDy=0;edgeStyle=orthogonalEdgeStyle;entryX=1;entryY=0.5;entryDx=0;entryDy=0;" parent="1" source="AVBo9yQekNsDWq98zU21-21" target="AVBo9yQekNsDWq98zU21-27" edge="1">
          <mxGeometry width="50" height="50" relative="1" as="geometry">
            <mxPoint x="289.90999999999997" y="470" as="sourcePoint" />
            <mxPoint x="289.90999999999997" y="580" as="targetPoint" />
          </mxGeometry>
        </mxCell>
        <mxCell id="AVBo9yQekNsDWq98zU21-30" value="Add to Cart" style="rounded=0;whiteSpace=wrap;html=1;" parent="1" vertex="1">
          <mxGeometry x="49.91" y="680" width="100" height="40" as="geometry" />
        </mxCell>
        <mxCell id="AVBo9yQekNsDWq98zU21-32" value="" style="endArrow=classic;html=1;rounded=0;entryX=0.5;entryY=0;entryDx=0;entryDy=0;exitX=0.5;exitY=1;exitDx=0;exitDy=0;" parent="1" source="AVBo9yQekNsDWq98zU21-1" target="AVBo9yQekNsDWq98zU21-2" edge="1">
          <mxGeometry width="50" height="50" relative="1" as="geometry">
            <mxPoint x="179.91" y="170" as="sourcePoint" />
            <mxPoint x="229.91" y="120" as="targetPoint" />
          </mxGeometry>
        </mxCell>
        <mxCell id="AVBo9yQekNsDWq98zU21-33" value="" style="endArrow=classic;html=1;rounded=0;exitX=0.5;exitY=1;exitDx=0;exitDy=0;entryX=0.5;entryY=0;entryDx=0;entryDy=0;" parent="1" source="AVBo9yQekNsDWq98zU21-27" target="AVBo9yQekNsDWq98zU21-30" edge="1">
          <mxGeometry width="50" height="50" relative="1" as="geometry">
            <mxPoint x="99.91" y="640" as="sourcePoint" />
            <mxPoint x="219.91" y="560" as="targetPoint" />
          </mxGeometry>
        </mxCell>
        <mxCell id="AVBo9yQekNsDWq98zU21-34" value="" style="endArrow=classic;html=1;rounded=0;exitX=0;exitY=0.5;exitDx=0;exitDy=0;edgeStyle=orthogonalEdgeStyle;entryX=0;entryY=0.5;entryDx=0;entryDy=0;" parent="1" source="AVBo9yQekNsDWq98zU21-30" target="AVBo9yQekNsDWq98zU21-18" edge="1">
          <mxGeometry width="50" height="50" relative="1" as="geometry">
            <mxPoint x="159.91" y="520" as="sourcePoint" />
            <mxPoint x="-70.09" y="700" as="targetPoint" />
            <Array as="points">
              <mxPoint x="9.909999999999997" y="700" />
              <mxPoint x="9.909999999999997" y="400" />
            </Array>
          </mxGeometry>
        </mxCell>
        <mxCell id="AVBo9yQekNsDWq98zU21-36" value="View items" style="rounded=0;whiteSpace=wrap;html=1;" parent="1" vertex="1">
          <mxGeometry x="479.90999999999997" y="470" width="100" height="40" as="geometry" />
        </mxCell>
        <mxCell id="AVBo9yQekNsDWq98zU21-37" value="" style="endArrow=classic;html=1;rounded=0;exitX=0.5;exitY=1;exitDx=0;exitDy=0;entryX=0.5;entryY=0;entryDx=0;entryDy=0;" parent="1" source="AVBo9yQekNsDWq98zU21-10" target="AVBo9yQekNsDWq98zU21-36" edge="1">
          <mxGeometry width="50" height="50" relative="1" as="geometry">
            <mxPoint x="409.90999999999997" y="440" as="sourcePoint" />
            <mxPoint x="459.90999999999997" y="390" as="targetPoint" />
          </mxGeometry>
        </mxCell>
        <mxCell id="AVBo9yQekNsDWq98zU21-38" value="Proceed to Checkout" style="rounded=0;whiteSpace=wrap;html=1;" parent="1" vertex="1">
          <mxGeometry x="479.90999999999997" y="570" width="100" height="40" as="geometry" />
        </mxCell>
        <mxCell id="AVBo9yQekNsDWq98zU21-39" value="" style="endArrow=classic;html=1;rounded=0;exitX=0.5;exitY=1;exitDx=0;exitDy=0;entryX=0.5;entryY=0;entryDx=0;entryDy=0;" parent="1" source="AVBo9yQekNsDWq98zU21-36" target="AVBo9yQekNsDWq98zU21-38" edge="1">
          <mxGeometry width="50" height="50" relative="1" as="geometry">
            <mxPoint x="409.90999999999997" y="360" as="sourcePoint" />
            <mxPoint x="459.90999999999997" y="310" as="targetPoint" />
          </mxGeometry>
        </mxCell>
        <mxCell id="AVBo9yQekNsDWq98zU21-40" value="View items" style="rounded=0;whiteSpace=wrap;html=1;" parent="1" vertex="1">
          <mxGeometry x="479.90999999999997" y="660" width="100" height="40" as="geometry" />
        </mxCell>
        <mxCell id="AVBo9yQekNsDWq98zU21-41" value="" style="endArrow=classic;html=1;rounded=0;exitX=0.5;exitY=1;exitDx=0;exitDy=0;entryX=0.5;entryY=0;entryDx=0;entryDy=0;" parent="1" source="AVBo9yQekNsDWq98zU21-38" target="AVBo9yQekNsDWq98zU21-40" edge="1">
          <mxGeometry width="50" height="50" relative="1" as="geometry">
            <mxPoint x="349.90999999999997" y="610" as="sourcePoint" />
            <mxPoint x="399.90999999999997" y="560" as="targetPoint" />
          </mxGeometry>
        </mxCell>
        <mxCell id="AVBo9yQekNsDWq98zU21-42" value="Yes" style="text;html=1;strokeColor=none;fillColor=none;align=center;verticalAlign=middle;whiteSpace=wrap;rounded=0;" parent="1" vertex="1">
          <mxGeometry x="319.90999999999997" y="240" width="40" height="30" as="geometry" />
        </mxCell>
      </root>
    </mxGraphModel>
  </diagram>
  <diagram id="AdXF4CmymaQF56F9sQUc" name="ERD">
    <mxGraphModel dx="1434" dy="764" grid="1" gridSize="10" guides="1" tooltips="1" connect="1" arrows="1" fold="1" page="1" pageScale="1" pageWidth="850" pageHeight="1100" math="0" shadow="0">
      <root>
        <mxCell id="0" />
        <mxCell id="1" parent="0" />
        <mxCell id="JyHB4Yn5zwd-twdRr39y-1" value="Users" style="shape=table;startSize=30;container=1;collapsible=1;childLayout=tableLayout;fixedRows=1;rowLines=0;fontStyle=1;align=center;resizeLast=1;html=1;" vertex="1" parent="1">
          <mxGeometry x="160" y="200" width="180" height="210" as="geometry" />
        </mxCell>
        <mxCell id="JyHB4Yn5zwd-twdRr39y-2" value="" style="shape=tableRow;horizontal=0;startSize=0;swimlaneHead=0;swimlaneBody=0;fillColor=none;collapsible=0;dropTarget=0;points=[[0,0.5],[1,0.5]];portConstraint=eastwest;top=0;left=0;right=0;bottom=1;" vertex="1" parent="JyHB4Yn5zwd-twdRr39y-1">
          <mxGeometry y="30" width="180" height="30" as="geometry" />
        </mxCell>
        <mxCell id="JyHB4Yn5zwd-twdRr39y-3" value="PK" style="shape=partialRectangle;connectable=0;fillColor=none;top=0;left=0;bottom=0;right=0;fontStyle=1;overflow=hidden;whiteSpace=wrap;html=1;" vertex="1" parent="JyHB4Yn5zwd-twdRr39y-2">
          <mxGeometry width="30" height="30" as="geometry">
            <mxRectangle width="30" height="30" as="alternateBounds" />
          </mxGeometry>
        </mxCell>
        <mxCell id="JyHB4Yn5zwd-twdRr39y-4" value="UserID" style="shape=partialRectangle;connectable=0;fillColor=none;top=0;left=0;bottom=0;right=0;align=left;spacingLeft=6;fontStyle=5;overflow=hidden;whiteSpace=wrap;html=1;" vertex="1" parent="JyHB4Yn5zwd-twdRr39y-2">
          <mxGeometry x="30" width="150" height="30" as="geometry">
            <mxRectangle width="150" height="30" as="alternateBounds" />
          </mxGeometry>
        </mxCell>
        <mxCell id="JyHB4Yn5zwd-twdRr39y-5" value="" style="shape=tableRow;horizontal=0;startSize=0;swimlaneHead=0;swimlaneBody=0;fillColor=none;collapsible=0;dropTarget=0;points=[[0,0.5],[1,0.5]];portConstraint=eastwest;top=0;left=0;right=0;bottom=0;" vertex="1" parent="JyHB4Yn5zwd-twdRr39y-1">
          <mxGeometry y="60" width="180" height="30" as="geometry" />
        </mxCell>
        <mxCell id="JyHB4Yn5zwd-twdRr39y-6" value="" style="shape=partialRectangle;connectable=0;fillColor=none;top=0;left=0;bottom=0;right=0;editable=1;overflow=hidden;whiteSpace=wrap;html=1;" vertex="1" parent="JyHB4Yn5zwd-twdRr39y-5">
          <mxGeometry width="30" height="30" as="geometry">
            <mxRectangle width="30" height="30" as="alternateBounds" />
          </mxGeometry>
        </mxCell>
        <mxCell id="JyHB4Yn5zwd-twdRr39y-7" value="firstName" style="shape=partialRectangle;connectable=0;fillColor=none;top=0;left=0;bottom=0;right=0;align=left;spacingLeft=6;overflow=hidden;whiteSpace=wrap;html=1;" vertex="1" parent="JyHB4Yn5zwd-twdRr39y-5">
          <mxGeometry x="30" width="150" height="30" as="geometry">
            <mxRectangle width="150" height="30" as="alternateBounds" />
          </mxGeometry>
        </mxCell>
        <mxCell id="JyHB4Yn5zwd-twdRr39y-8" value="" style="shape=tableRow;horizontal=0;startSize=0;swimlaneHead=0;swimlaneBody=0;fillColor=none;collapsible=0;dropTarget=0;points=[[0,0.5],[1,0.5]];portConstraint=eastwest;top=0;left=0;right=0;bottom=0;" vertex="1" parent="JyHB4Yn5zwd-twdRr39y-1">
          <mxGeometry y="90" width="180" height="30" as="geometry" />
        </mxCell>
        <mxCell id="JyHB4Yn5zwd-twdRr39y-9" value="" style="shape=partialRectangle;connectable=0;fillColor=none;top=0;left=0;bottom=0;right=0;editable=1;overflow=hidden;whiteSpace=wrap;html=1;" vertex="1" parent="JyHB4Yn5zwd-twdRr39y-8">
          <mxGeometry width="30" height="30" as="geometry">
            <mxRectangle width="30" height="30" as="alternateBounds" />
          </mxGeometry>
        </mxCell>
        <mxCell id="JyHB4Yn5zwd-twdRr39y-10" value="lastName" style="shape=partialRectangle;connectable=0;fillColor=none;top=0;left=0;bottom=0;right=0;align=left;spacingLeft=6;overflow=hidden;whiteSpace=wrap;html=1;" vertex="1" parent="JyHB4Yn5zwd-twdRr39y-8">
          <mxGeometry x="30" width="150" height="30" as="geometry">
            <mxRectangle width="150" height="30" as="alternateBounds" />
          </mxGeometry>
        </mxCell>
        <mxCell id="JyHB4Yn5zwd-twdRr39y-11" value="" style="shape=tableRow;horizontal=0;startSize=0;swimlaneHead=0;swimlaneBody=0;fillColor=none;collapsible=0;dropTarget=0;points=[[0,0.5],[1,0.5]];portConstraint=eastwest;top=0;left=0;right=0;bottom=0;" vertex="1" parent="JyHB4Yn5zwd-twdRr39y-1">
          <mxGeometry y="120" width="180" height="30" as="geometry" />
        </mxCell>
        <mxCell id="JyHB4Yn5zwd-twdRr39y-12" value="" style="shape=partialRectangle;connectable=0;fillColor=none;top=0;left=0;bottom=0;right=0;editable=1;overflow=hidden;whiteSpace=wrap;html=1;" vertex="1" parent="JyHB4Yn5zwd-twdRr39y-11">
          <mxGeometry width="30" height="30" as="geometry">
            <mxRectangle width="30" height="30" as="alternateBounds" />
          </mxGeometry>
        </mxCell>
        <mxCell id="JyHB4Yn5zwd-twdRr39y-13" value="email" style="shape=partialRectangle;connectable=0;fillColor=none;top=0;left=0;bottom=0;right=0;align=left;spacingLeft=6;overflow=hidden;whiteSpace=wrap;html=1;" vertex="1" parent="JyHB4Yn5zwd-twdRr39y-11">
          <mxGeometry x="30" width="150" height="30" as="geometry">
            <mxRectangle width="150" height="30" as="alternateBounds" />
          </mxGeometry>
        </mxCell>
        <mxCell id="JyHB4Yn5zwd-twdRr39y-27" value="" style="shape=tableRow;horizontal=0;startSize=0;swimlaneHead=0;swimlaneBody=0;fillColor=none;collapsible=0;dropTarget=0;points=[[0,0.5],[1,0.5]];portConstraint=eastwest;top=0;left=0;right=0;bottom=0;" vertex="1" parent="JyHB4Yn5zwd-twdRr39y-1">
          <mxGeometry y="150" width="180" height="30" as="geometry" />
        </mxCell>
        <mxCell id="JyHB4Yn5zwd-twdRr39y-28" value="" style="shape=partialRectangle;connectable=0;fillColor=none;top=0;left=0;bottom=0;right=0;editable=1;overflow=hidden;whiteSpace=wrap;html=1;" vertex="1" parent="JyHB4Yn5zwd-twdRr39y-27">
          <mxGeometry width="30" height="30" as="geometry">
            <mxRectangle width="30" height="30" as="alternateBounds" />
          </mxGeometry>
        </mxCell>
        <mxCell id="JyHB4Yn5zwd-twdRr39y-29" value="phoneNumber" style="shape=partialRectangle;connectable=0;fillColor=none;top=0;left=0;bottom=0;right=0;align=left;spacingLeft=6;overflow=hidden;whiteSpace=wrap;html=1;" vertex="1" parent="JyHB4Yn5zwd-twdRr39y-27">
          <mxGeometry x="30" width="150" height="30" as="geometry">
            <mxRectangle width="150" height="30" as="alternateBounds" />
          </mxGeometry>
        </mxCell>
        <mxCell id="JyHB4Yn5zwd-twdRr39y-30" value="" style="shape=tableRow;horizontal=0;startSize=0;swimlaneHead=0;swimlaneBody=0;fillColor=none;collapsible=0;dropTarget=0;points=[[0,0.5],[1,0.5]];portConstraint=eastwest;top=0;left=0;right=0;bottom=0;" vertex="1" parent="JyHB4Yn5zwd-twdRr39y-1">
          <mxGeometry y="180" width="180" height="30" as="geometry" />
        </mxCell>
        <mxCell id="JyHB4Yn5zwd-twdRr39y-31" value="" style="shape=partialRectangle;connectable=0;fillColor=none;top=0;left=0;bottom=0;right=0;editable=1;overflow=hidden;whiteSpace=wrap;html=1;" vertex="1" parent="JyHB4Yn5zwd-twdRr39y-30">
          <mxGeometry width="30" height="30" as="geometry">
            <mxRectangle width="30" height="30" as="alternateBounds" />
          </mxGeometry>
        </mxCell>
        <mxCell id="JyHB4Yn5zwd-twdRr39y-32" value="password" style="shape=partialRectangle;connectable=0;fillColor=none;top=0;left=0;bottom=0;right=0;align=left;spacingLeft=6;overflow=hidden;whiteSpace=wrap;html=1;" vertex="1" parent="JyHB4Yn5zwd-twdRr39y-30">
          <mxGeometry x="30" width="150" height="30" as="geometry">
            <mxRectangle width="150" height="30" as="alternateBounds" />
          </mxGeometry>
        </mxCell>
        <mxCell id="JyHB4Yn5zwd-twdRr39y-14" value="Products" style="shape=table;startSize=30;container=1;collapsible=1;childLayout=tableLayout;fixedRows=1;rowLines=0;fontStyle=1;align=center;resizeLast=1;html=1;" vertex="1" parent="1">
          <mxGeometry x="570" y="220" width="180" height="150" as="geometry" />
        </mxCell>
        <mxCell id="JyHB4Yn5zwd-twdRr39y-15" value="" style="shape=tableRow;horizontal=0;startSize=0;swimlaneHead=0;swimlaneBody=0;fillColor=none;collapsible=0;dropTarget=0;points=[[0,0.5],[1,0.5]];portConstraint=eastwest;top=0;left=0;right=0;bottom=1;" vertex="1" parent="JyHB4Yn5zwd-twdRr39y-14">
          <mxGeometry y="30" width="180" height="30" as="geometry" />
        </mxCell>
        <mxCell id="JyHB4Yn5zwd-twdRr39y-16" value="PK" style="shape=partialRectangle;connectable=0;fillColor=none;top=0;left=0;bottom=0;right=0;fontStyle=1;overflow=hidden;whiteSpace=wrap;html=1;" vertex="1" parent="JyHB4Yn5zwd-twdRr39y-15">
          <mxGeometry width="30" height="30" as="geometry">
            <mxRectangle width="30" height="30" as="alternateBounds" />
          </mxGeometry>
        </mxCell>
        <mxCell id="JyHB4Yn5zwd-twdRr39y-17" value="ProductID" style="shape=partialRectangle;connectable=0;fillColor=none;top=0;left=0;bottom=0;right=0;align=left;spacingLeft=6;fontStyle=5;overflow=hidden;whiteSpace=wrap;html=1;" vertex="1" parent="JyHB4Yn5zwd-twdRr39y-15">
          <mxGeometry x="30" width="150" height="30" as="geometry">
            <mxRectangle width="150" height="30" as="alternateBounds" />
          </mxGeometry>
        </mxCell>
        <mxCell id="JyHB4Yn5zwd-twdRr39y-18" value="" style="shape=tableRow;horizontal=0;startSize=0;swimlaneHead=0;swimlaneBody=0;fillColor=none;collapsible=0;dropTarget=0;points=[[0,0.5],[1,0.5]];portConstraint=eastwest;top=0;left=0;right=0;bottom=0;" vertex="1" parent="JyHB4Yn5zwd-twdRr39y-14">
          <mxGeometry y="60" width="180" height="30" as="geometry" />
        </mxCell>
        <mxCell id="JyHB4Yn5zwd-twdRr39y-19" value="" style="shape=partialRectangle;connectable=0;fillColor=none;top=0;left=0;bottom=0;right=0;editable=1;overflow=hidden;whiteSpace=wrap;html=1;" vertex="1" parent="JyHB4Yn5zwd-twdRr39y-18">
          <mxGeometry width="30" height="30" as="geometry">
            <mxRectangle width="30" height="30" as="alternateBounds" />
          </mxGeometry>
        </mxCell>
        <mxCell id="JyHB4Yn5zwd-twdRr39y-20" value="Row 1" style="shape=partialRectangle;connectable=0;fillColor=none;top=0;left=0;bottom=0;right=0;align=left;spacingLeft=6;overflow=hidden;whiteSpace=wrap;html=1;" vertex="1" parent="JyHB4Yn5zwd-twdRr39y-18">
          <mxGeometry x="30" width="150" height="30" as="geometry">
            <mxRectangle width="150" height="30" as="alternateBounds" />
          </mxGeometry>
        </mxCell>
        <mxCell id="JyHB4Yn5zwd-twdRr39y-21" value="" style="shape=tableRow;horizontal=0;startSize=0;swimlaneHead=0;swimlaneBody=0;fillColor=none;collapsible=0;dropTarget=0;points=[[0,0.5],[1,0.5]];portConstraint=eastwest;top=0;left=0;right=0;bottom=0;" vertex="1" parent="JyHB4Yn5zwd-twdRr39y-14">
          <mxGeometry y="90" width="180" height="30" as="geometry" />
        </mxCell>
        <mxCell id="JyHB4Yn5zwd-twdRr39y-22" value="" style="shape=partialRectangle;connectable=0;fillColor=none;top=0;left=0;bottom=0;right=0;editable=1;overflow=hidden;whiteSpace=wrap;html=1;" vertex="1" parent="JyHB4Yn5zwd-twdRr39y-21">
          <mxGeometry width="30" height="30" as="geometry">
            <mxRectangle width="30" height="30" as="alternateBounds" />
          </mxGeometry>
        </mxCell>
        <mxCell id="JyHB4Yn5zwd-twdRr39y-23" value="Row 2" style="shape=partialRectangle;connectable=0;fillColor=none;top=0;left=0;bottom=0;right=0;align=left;spacingLeft=6;overflow=hidden;whiteSpace=wrap;html=1;" vertex="1" parent="JyHB4Yn5zwd-twdRr39y-21">
          <mxGeometry x="30" width="150" height="30" as="geometry">
            <mxRectangle width="150" height="30" as="alternateBounds" />
          </mxGeometry>
        </mxCell>
        <mxCell id="JyHB4Yn5zwd-twdRr39y-24" value="" style="shape=tableRow;horizontal=0;startSize=0;swimlaneHead=0;swimlaneBody=0;fillColor=none;collapsible=0;dropTarget=0;points=[[0,0.5],[1,0.5]];portConstraint=eastwest;top=0;left=0;right=0;bottom=0;" vertex="1" parent="JyHB4Yn5zwd-twdRr39y-14">
          <mxGeometry y="120" width="180" height="30" as="geometry" />
        </mxCell>
        <mxCell id="JyHB4Yn5zwd-twdRr39y-25" value="" style="shape=partialRectangle;connectable=0;fillColor=none;top=0;left=0;bottom=0;right=0;editable=1;overflow=hidden;whiteSpace=wrap;html=1;" vertex="1" parent="JyHB4Yn5zwd-twdRr39y-24">
          <mxGeometry width="30" height="30" as="geometry">
            <mxRectangle width="30" height="30" as="alternateBounds" />
          </mxGeometry>
        </mxCell>
        <mxCell id="JyHB4Yn5zwd-twdRr39y-26" value="Row 3" style="shape=partialRectangle;connectable=0;fillColor=none;top=0;left=0;bottom=0;right=0;align=left;spacingLeft=6;overflow=hidden;whiteSpace=wrap;html=1;" vertex="1" parent="JyHB4Yn5zwd-twdRr39y-24">
          <mxGeometry x="30" width="150" height="30" as="geometry">
            <mxRectangle width="150" height="30" as="alternateBounds" />
          </mxGeometry>
        </mxCell>
      </root>
    </mxGraphModel>
  </diagram>
  <diagram id="OZQ1tPp7duTRd6uGi4gd" name="Wireframes">
    <mxGraphModel dx="2049" dy="1091" grid="1" gridSize="10" guides="1" tooltips="1" connect="1" arrows="1" fold="1" page="1" pageScale="1" pageWidth="850" pageHeight="1100" math="0" shadow="0">
      <root>
        <mxCell id="0" />
        <mxCell id="1" parent="0" />
        <mxCell id="nmYb09Cm9TaSjdmXydWf-1" value="" style="rounded=0;whiteSpace=wrap;html=1;" vertex="1" parent="1">
          <mxGeometry x="660" y="40" width="570" height="350" as="geometry" />
        </mxCell>
        <mxCell id="nmYb09Cm9TaSjdmXydWf-2" value="" style="rounded=0;whiteSpace=wrap;html=1;" vertex="1" parent="1">
          <mxGeometry x="660" y="40" width="570" height="40" as="geometry" />
        </mxCell>
        <mxCell id="nmYb09Cm9TaSjdmXydWf-3" value="" style="rounded=0;whiteSpace=wrap;html=1;" vertex="1" parent="1">
          <mxGeometry x="670" y="120" width="130" height="130" as="geometry" />
        </mxCell>
        <mxCell id="nmYb09Cm9TaSjdmXydWf-8" value="" style="rounded=0;whiteSpace=wrap;html=1;" vertex="1" parent="1">
          <mxGeometry x="715" y="235" width="40" height="10" as="geometry" />
        </mxCell>
        <mxCell id="nmYb09Cm9TaSjdmXydWf-9" value="" style="rounded=0;whiteSpace=wrap;html=1;" vertex="1" parent="1">
          <mxGeometry x="690" y="130" width="90" height="60" as="geometry" />
        </mxCell>
        <mxCell id="nmYb09Cm9TaSjdmXydWf-10" value="This is a placeholder description for what will probably be a great product." style="text;html=1;strokeColor=none;fillColor=none;align=center;verticalAlign=middle;whiteSpace=wrap;rounded=0;fontSize=9;" vertex="1" parent="1">
          <mxGeometry x="675" y="200" width="120" height="30" as="geometry" />
        </mxCell>
        <mxCell id="nmYb09Cm9TaSjdmXydWf-11" value="" style="rounded=0;whiteSpace=wrap;html=1;" vertex="1" parent="1">
          <mxGeometry x="810" y="120" width="130" height="130" as="geometry" />
        </mxCell>
        <mxCell id="nmYb09Cm9TaSjdmXydWf-12" value="" style="rounded=0;whiteSpace=wrap;html=1;" vertex="1" parent="1">
          <mxGeometry x="855" y="235" width="40" height="10" as="geometry" />
        </mxCell>
        <mxCell id="nmYb09Cm9TaSjdmXydWf-13" value="" style="rounded=0;whiteSpace=wrap;html=1;" vertex="1" parent="1">
          <mxGeometry x="830" y="130" width="90" height="60" as="geometry" />
        </mxCell>
        <mxCell id="nmYb09Cm9TaSjdmXydWf-14" value="This is a placeholder description for what will probably be a great product." style="text;html=1;strokeColor=none;fillColor=none;align=center;verticalAlign=middle;whiteSpace=wrap;rounded=0;fontSize=9;" vertex="1" parent="1">
          <mxGeometry x="815" y="200" width="120" height="30" as="geometry" />
        </mxCell>
        <mxCell id="nmYb09Cm9TaSjdmXydWf-15" value="" style="rounded=0;whiteSpace=wrap;html=1;" vertex="1" parent="1">
          <mxGeometry x="950" y="120" width="130" height="130" as="geometry" />
        </mxCell>
        <mxCell id="nmYb09Cm9TaSjdmXydWf-16" value="" style="rounded=0;whiteSpace=wrap;html=1;" vertex="1" parent="1">
          <mxGeometry x="995" y="235" width="40" height="10" as="geometry" />
        </mxCell>
        <mxCell id="nmYb09Cm9TaSjdmXydWf-17" value="" style="rounded=0;whiteSpace=wrap;html=1;" vertex="1" parent="1">
          <mxGeometry x="970" y="130" width="90" height="60" as="geometry" />
        </mxCell>
        <mxCell id="nmYb09Cm9TaSjdmXydWf-18" value="This is a placeholder description for what will probably be a great product." style="text;html=1;strokeColor=none;fillColor=none;align=center;verticalAlign=middle;whiteSpace=wrap;rounded=0;fontSize=9;" vertex="1" parent="1">
          <mxGeometry x="955" y="200" width="120" height="30" as="geometry" />
        </mxCell>
        <mxCell id="nmYb09Cm9TaSjdmXydWf-19" value="" style="rounded=0;whiteSpace=wrap;html=1;" vertex="1" parent="1">
          <mxGeometry x="1090" y="120" width="130" height="130" as="geometry" />
        </mxCell>
        <mxCell id="nmYb09Cm9TaSjdmXydWf-20" value="" style="rounded=0;whiteSpace=wrap;html=1;" vertex="1" parent="1">
          <mxGeometry x="1135" y="235" width="40" height="10" as="geometry" />
        </mxCell>
        <mxCell id="nmYb09Cm9TaSjdmXydWf-21" value="" style="rounded=0;whiteSpace=wrap;html=1;" vertex="1" parent="1">
          <mxGeometry x="1110" y="130" width="90" height="60" as="geometry" />
        </mxCell>
        <mxCell id="nmYb09Cm9TaSjdmXydWf-22" value="This is a placeholder description for what will probably be a great product." style="text;html=1;strokeColor=none;fillColor=none;align=center;verticalAlign=middle;whiteSpace=wrap;rounded=0;fontSize=9;" vertex="1" parent="1">
          <mxGeometry x="1095" y="200" width="120" height="30" as="geometry" />
        </mxCell>
        <mxCell id="nmYb09Cm9TaSjdmXydWf-23" value="" style="rounded=0;whiteSpace=wrap;html=1;" vertex="1" parent="1">
          <mxGeometry x="670" y="90" width="550" height="20" as="geometry" />
        </mxCell>
        <mxCell id="nmYb09Cm9TaSjdmXydWf-24" value="" style="html=1;verticalLabelPosition=bottom;align=center;labelBackgroundColor=#ffffff;verticalAlign=top;strokeWidth=2;strokeColor=#0080F0;shadow=0;dashed=0;shape=mxgraph.ios7.icons.looking_glass;" vertex="1" parent="1">
          <mxGeometry x="1205" y="95" width="10" height="10" as="geometry" />
        </mxCell>
        <mxCell id="nmYb09Cm9TaSjdmXydWf-25" value="" style="rounded=0;whiteSpace=wrap;html=1;" vertex="1" parent="1">
          <mxGeometry x="670" y="270" width="130" height="120" as="geometry" />
        </mxCell>
        <mxCell id="nmYb09Cm9TaSjdmXydWf-27" value="" style="rounded=0;whiteSpace=wrap;html=1;" vertex="1" parent="1">
          <mxGeometry x="690" y="280" width="90" height="60" as="geometry" />
        </mxCell>
        <mxCell id="nmYb09Cm9TaSjdmXydWf-28" value="This is a placeholder description for what will probably be a great product." style="text;html=1;strokeColor=none;fillColor=none;align=center;verticalAlign=middle;whiteSpace=wrap;rounded=0;fontSize=9;" vertex="1" parent="1">
          <mxGeometry x="675" y="350" width="120" height="30" as="geometry" />
        </mxCell>
        <mxCell id="nmYb09Cm9TaSjdmXydWf-29" value="" style="rounded=0;whiteSpace=wrap;html=1;" vertex="1" parent="1">
          <mxGeometry x="810" y="270" width="130" height="120" as="geometry" />
        </mxCell>
        <mxCell id="nmYb09Cm9TaSjdmXydWf-31" value="" style="rounded=0;whiteSpace=wrap;html=1;" vertex="1" parent="1">
          <mxGeometry x="830" y="280" width="90" height="60" as="geometry" />
        </mxCell>
        <mxCell id="nmYb09Cm9TaSjdmXydWf-32" value="This is a placeholder description for what will probably be a great product." style="text;html=1;strokeColor=none;fillColor=none;align=center;verticalAlign=middle;whiteSpace=wrap;rounded=0;fontSize=9;" vertex="1" parent="1">
          <mxGeometry x="815" y="350" width="120" height="30" as="geometry" />
        </mxCell>
        <mxCell id="nmYb09Cm9TaSjdmXydWf-33" value="" style="rounded=0;whiteSpace=wrap;html=1;" vertex="1" parent="1">
          <mxGeometry x="950" y="270" width="130" height="120" as="geometry" />
        </mxCell>
        <mxCell id="nmYb09Cm9TaSjdmXydWf-35" value="" style="rounded=0;whiteSpace=wrap;html=1;" vertex="1" parent="1">
          <mxGeometry x="970" y="280" width="90" height="60" as="geometry" />
        </mxCell>
        <mxCell id="nmYb09Cm9TaSjdmXydWf-36" value="This is a placeholder description for what will probably be a great product." style="text;html=1;strokeColor=none;fillColor=none;align=center;verticalAlign=middle;whiteSpace=wrap;rounded=0;fontSize=9;" vertex="1" parent="1">
          <mxGeometry x="955" y="350" width="120" height="30" as="geometry" />
        </mxCell>
        <mxCell id="nmYb09Cm9TaSjdmXydWf-37" value="" style="rounded=0;whiteSpace=wrap;html=1;" vertex="1" parent="1">
          <mxGeometry x="1090" y="270" width="130" height="120" as="geometry" />
        </mxCell>
        <mxCell id="nmYb09Cm9TaSjdmXydWf-39" value="" style="rounded=0;whiteSpace=wrap;html=1;" vertex="1" parent="1">
          <mxGeometry x="1110" y="280" width="90" height="60" as="geometry" />
        </mxCell>
        <mxCell id="nmYb09Cm9TaSjdmXydWf-40" value="This is a placeholder description for what will probably be a great product." style="text;html=1;strokeColor=none;fillColor=none;align=center;verticalAlign=middle;whiteSpace=wrap;rounded=0;fontSize=9;" vertex="1" parent="1">
          <mxGeometry x="1095" y="350" width="120" height="30" as="geometry" />
        </mxCell>
        <mxCell id="nmYb09Cm9TaSjdmXydWf-42" value="Home" style="rounded=1;whiteSpace=wrap;html=1;fontSize=7;" vertex="1" parent="1">
          <mxGeometry x="830" y="50" width="40" height="20" as="geometry" />
        </mxCell>
        <mxCell id="nmYb09Cm9TaSjdmXydWf-43" value="Store" style="rounded=1;whiteSpace=wrap;html=1;fontSize=7;" vertex="1" parent="1">
          <mxGeometry x="880" y="50" width="40" height="20" as="geometry" />
        </mxCell>
        <mxCell id="nmYb09Cm9TaSjdmXydWf-44" value="Account" style="rounded=1;whiteSpace=wrap;html=1;fontSize=7;" vertex="1" parent="1">
          <mxGeometry x="930" y="50" width="40" height="20" as="geometry" />
        </mxCell>
        <mxCell id="nmYb09Cm9TaSjdmXydWf-45" value="About Us" style="rounded=1;whiteSpace=wrap;html=1;fontSize=7;" vertex="1" parent="1">
          <mxGeometry x="980" y="50" width="40" height="20" as="geometry" />
        </mxCell>
        <mxCell id="nmYb09Cm9TaSjdmXydWf-46" value="Contact Us" style="rounded=1;whiteSpace=wrap;html=1;fontSize=7;" vertex="1" parent="1">
          <mxGeometry x="1030" y="50" width="40" height="20" as="geometry" />
        </mxCell>
        <mxCell id="nmYb09Cm9TaSjdmXydWf-47" value="Login/Logout" style="text;html=1;strokeColor=none;fillColor=none;align=center;verticalAlign=middle;whiteSpace=wrap;rounded=0;fontSize=7;" vertex="1" parent="1">
          <mxGeometry x="1180" y="43" width="50" height="10" as="geometry" />
        </mxCell>
        <mxCell id="nmYb09Cm9TaSjdmXydWf-48" value="PureTech" style="text;html=1;strokeColor=none;fillColor=none;align=center;verticalAlign=middle;whiteSpace=wrap;rounded=0;fontFamily=Courier New;fontSize=16;" vertex="1" parent="1">
          <mxGeometry x="670" y="45" width="70" height="30" as="geometry" />
        </mxCell>
        <mxCell id="nmYb09Cm9TaSjdmXydWf-88" value="" style="rounded=0;whiteSpace=wrap;html=1;" vertex="1" parent="1">
          <mxGeometry x="40" y="40" width="570" height="350" as="geometry" />
        </mxCell>
        <mxCell id="nmYb09Cm9TaSjdmXydWf-89" value="" style="rounded=0;whiteSpace=wrap;html=1;" vertex="1" parent="1">
          <mxGeometry x="40" y="40" width="570" height="40" as="geometry" />
        </mxCell>
        <mxCell id="nmYb09Cm9TaSjdmXydWf-90" value="Home" style="rounded=1;whiteSpace=wrap;html=1;fontSize=7;" vertex="1" parent="1">
          <mxGeometry x="210" y="50" width="40" height="20" as="geometry" />
        </mxCell>
        <mxCell id="nmYb09Cm9TaSjdmXydWf-91" value="Store" style="rounded=1;whiteSpace=wrap;html=1;fontSize=7;" vertex="1" parent="1">
          <mxGeometry x="260" y="50" width="40" height="20" as="geometry" />
        </mxCell>
        <mxCell id="nmYb09Cm9TaSjdmXydWf-92" value="Account" style="rounded=1;whiteSpace=wrap;html=1;fontSize=7;" vertex="1" parent="1">
          <mxGeometry x="310" y="50" width="40" height="20" as="geometry" />
        </mxCell>
        <mxCell id="nmYb09Cm9TaSjdmXydWf-93" value="About Us" style="rounded=1;whiteSpace=wrap;html=1;fontSize=7;" vertex="1" parent="1">
          <mxGeometry x="360" y="50" width="40" height="20" as="geometry" />
        </mxCell>
        <mxCell id="nmYb09Cm9TaSjdmXydWf-94" value="Contact Us" style="rounded=1;whiteSpace=wrap;html=1;fontSize=7;" vertex="1" parent="1">
          <mxGeometry x="410" y="50" width="40" height="20" as="geometry" />
        </mxCell>
        <mxCell id="nmYb09Cm9TaSjdmXydWf-95" value="Login/Logout" style="text;html=1;strokeColor=none;fillColor=none;align=center;verticalAlign=middle;whiteSpace=wrap;rounded=0;fontSize=7;" vertex="1" parent="1">
          <mxGeometry x="560" y="43" width="50" height="10" as="geometry" />
        </mxCell>
        <mxCell id="nmYb09Cm9TaSjdmXydWf-96" value="PureTech" style="text;html=1;strokeColor=none;fillColor=none;align=center;verticalAlign=middle;whiteSpace=wrap;rounded=0;fontFamily=Courier New;fontSize=16;" vertex="1" parent="1">
          <mxGeometry x="50" y="45" width="70" height="30" as="geometry" />
        </mxCell>
        <mxCell id="nmYb09Cm9TaSjdmXydWf-99" value="Welcome to PureTech" style="text;html=1;strokeColor=none;fillColor=none;align=center;verticalAlign=middle;whiteSpace=wrap;rounded=0;fontSize=23;" vertex="1" parent="1">
          <mxGeometry x="210" y="190" width="230" height="30" as="geometry" />
        </mxCell>
        <mxCell id="nmYb09Cm9TaSjdmXydWf-100" value="Shop Now" style="rounded=1;whiteSpace=wrap;html=1;" vertex="1" parent="1">
          <mxGeometry x="285" y="225" width="80" height="30" as="geometry" />
        </mxCell>
        <mxCell id="nmYb09Cm9TaSjdmXydWf-101" value="" style="rounded=0;whiteSpace=wrap;html=1;" vertex="1" parent="1">
          <mxGeometry x="40" y="360" width="570" height="30" as="geometry" />
        </mxCell>
        <mxCell id="nmYb09Cm9TaSjdmXydWf-102" value="Created by Javarn Tromp de Haas" style="text;html=1;strokeColor=none;fillColor=none;align=center;verticalAlign=middle;whiteSpace=wrap;rounded=0;fontSize=7;" vertex="1" parent="1">
          <mxGeometry x="265" y="360" width="130" height="30" as="geometry" />
        </mxCell>
        <mxCell id="nmYb09Cm9TaSjdmXydWf-103" value="" style="shape=image;html=1;verticalAlign=top;verticalLabelPosition=bottom;labelBackgroundColor=#ffffff;imageAspect=0;aspect=fixed;image=https://cdn1.iconfinder.com/data/icons/social-media-circle-7/512/Circled_Facebook_svg-128.png" vertex="1" parent="1">
          <mxGeometry x="50" y="365" width="20" height="20" as="geometry" />
        </mxCell>
        <mxCell id="nmYb09Cm9TaSjdmXydWf-104" value="" style="shape=image;html=1;verticalAlign=top;verticalLabelPosition=bottom;labelBackgroundColor=#ffffff;imageAspect=0;aspect=fixed;image=https://cdn4.iconfinder.com/data/icons/social-media-black-white-2/600/Instagram_glyph_svg-128.png" vertex="1" parent="1">
          <mxGeometry x="75" y="365" width="20" height="20" as="geometry" />
        </mxCell>
        <mxCell id="nmYb09Cm9TaSjdmXydWf-105" value="" style="shape=image;html=1;verticalAlign=top;verticalLabelPosition=bottom;labelBackgroundColor=#ffffff;imageAspect=0;aspect=fixed;image=https://cdn2.iconfinder.com/data/icons/social-media-2421/512/TikTok-128.png" vertex="1" parent="1">
          <mxGeometry x="100" y="365" width="20" height="20" as="geometry" />
        </mxCell>
      </root>
    </mxGraphModel>
  </diagram>
</mxfile>
